<svg version="1.1" id="Capa_1" xmlns="http://www.w3.org/2000/svg" x="0" y="0" viewBox="0 0 219.2 219.2" xml:space="preserve"><style>.st0{fill:#837465}</style><path class="st0" d="M211.7 0H7.5C3.4 0 0 3.4 0 7.5v204.2c0 4.1 3.4 7.5 7.5 7.5h204.2c4.1 0 7.5-3.4 7.5-7.5V7.5c0-4.1-3.4-7.5-7.5-7.5zm-7.5 204.2H15V15h189.2v189.2z"/><path class="st0" d="M53.2 165.9c1.5 1.5 3.4 2.2 5.3 2.2s3.8-.7 5.3-2.2l45.7-45.7 45.7 45.7c1.5 1.5 3.4 2.2 5.3 2.2s3.8-.7 5.3-2.2c2.9-2.9 2.9-7.7 0-10.6l-45.7-45.7 45.7-45.7c2.9-2.9 2.9-7.7 0-10.6-2.9-2.9-7.7-2.9-10.6 0L109.6 99 63.8 53.2c-2.9-2.9-7.7-2.9-10.6 0-2.9 2.9-2.9 7.7 0 10.6L99 109.6l-45.7 45.7c-3 2.9-3 7.7-.1 10.6z"/></svg>
