<?xml version="1.0" encoding="utf-8"?>
<!-- Generator: Adobe Illustrator 21.1.0, SVG Export Plug-In . SVG Version: 6.00 Build 0)  -->
<svg version="1.1" id="Capa_1" xmlns="http://www.w3.org/2000/svg" xmlns:xlink="http://www.w3.org/1999/xlink" x="0px" y="0px"
     viewBox="0 0 219.2 219.2" style="enable-background:new 0 0 219.2 219.2;" xml:space="preserve">
<style type="text/css">
	.st0{fill:#837465;}
</style>
    <g>
	<path class="st0" d="M211.7,0H7.5C3.4,0,0,3.4,0,7.5v204.2c0,4.1,3.4,7.5,7.5,7.5h204.2c4.1,0,7.5-3.4,7.5-7.5V7.5
		C219.2,3.4,215.8,0,211.7,0z M204.2,204.2H15V15h189.2L204.2,204.2L204.2,204.2z"/>
        <path class="st0" d="M58.5,66h102.1c4.1,0,7.5-3.4,7.5-7.5s-3.4-7.5-7.5-7.5H58.5c-4.1,0-7.5,3.4-7.5,7.5S54.4,66,58.5,66z"/>
        <path class="st0" d="M58.5,117.1h102.1c4.1,0,7.5-3.4,7.5-7.5s-3.4-7.5-7.5-7.5H58.5c-4.1,0-7.5,3.4-7.5,7.5S54.4,117.1,58.5,117.1
		z"/>
        <path class="st0" d="M58.5,168.1h102.1c4.1,0,7.5-3.4,7.5-7.5s-3.4-7.5-7.5-7.5H58.5c-4.1,0-7.5,3.4-7.5,7.5S54.4,168.1,58.5,168.1
		z"/>
</g>
</svg>
